<svg width="4691" height="835" viewBox="0 0 4691 835" fill="none" xmlns="http://www.w3.org/2000/svg">
<g clip-path="url(#clip0_371_339)">
<path d="M299.443 829.339C233.656 829.339 176.944 818.764 129.305 797.615C82.4225 775.711 39.3208 742.855 0 699.047L115.694 584.617C141.404 614.074 169.76 637.111 200.763 653.728C232.522 669.59 269.196 677.52 310.786 677.52C348.594 677.52 377.707 670.723 398.123 657.127C419.296 643.531 429.882 624.648 429.882 600.478C429.882 578.574 423.077 560.824 409.466 547.229C395.855 533.633 377.707 521.926 355.022 512.107C333.093 502.288 308.517 492.846 281.295 483.782C254.829 474.719 228.363 464.522 201.897 453.192C175.431 441.107 150.856 426.378 128.171 409.006C106.242 390.879 88.4718 368.597 74.8608 342.161C61.2497 314.97 54.4442 280.98 54.4442 240.193C54.4442 191.098 66.1648 148.8 89.6061 113.301C113.803 77.8009 147.075 50.9872 189.42 32.8597C231.766 13.9768 280.539 4.53543 335.739 4.53543C391.696 4.53543 442.737 14.3545 488.864 33.9926C535.746 53.6308 574.311 80.4445 604.557 114.434L488.864 228.864C464.666 203.938 440.091 185.433 415.137 173.348C390.94 161.263 363.339 155.221 332.336 155.221C301.334 155.221 276.758 161.263 258.61 173.348C240.462 184.678 231.388 201.295 231.388 223.199C231.388 243.592 238.193 260.209 251.804 273.05C265.415 285.135 283.185 295.709 305.114 304.773C327.799 313.837 352.375 322.9 378.841 331.964C406.063 341.028 432.907 351.602 459.373 363.687C485.839 375.772 510.036 391.256 531.965 410.139C554.65 428.267 572.798 451.682 586.409 480.383C600.02 508.33 606.826 543.075 606.826 584.617C606.826 660.904 579.604 720.951 525.16 764.759C470.715 807.812 395.477 829.339 299.443 829.339Z" fill="#038C7F"/>
<path d="M967.607 829.339C910.895 829.339 859.475 816.876 813.349 791.951C767.222 767.025 730.926 732.658 704.46 688.85C677.994 645.042 664.761 595.947 664.761 541.564C664.761 486.426 677.994 437.331 704.46 394.278C731.682 350.469 768.357 316.103 814.483 291.177C860.609 266.252 912.407 253.789 969.876 253.789C1012.98 253.789 1052.3 261.342 1087.84 276.449C1124.13 290.8 1156.27 312.704 1184.25 342.161L1073.09 453.192C1060.24 438.841 1045.11 428.267 1027.72 421.469C1011.09 414.671 991.805 411.272 969.876 411.272C944.922 411.272 922.615 416.937 902.955 428.267C884.051 438.841 868.927 453.947 857.585 473.586C846.998 492.468 841.705 514.75 841.705 540.431C841.705 566.112 846.998 588.771 857.585 608.409C868.927 628.047 884.429 643.531 904.089 654.861C923.749 666.191 945.678 671.856 969.876 671.856C992.561 671.856 1012.6 668.079 1029.99 660.526C1048.14 652.217 1063.64 640.888 1076.5 626.537L1186.52 737.568C1157.78 767.781 1125.27 790.818 1088.97 806.679C1052.68 821.785 1012.22 829.339 967.607 829.339Z" fill="#038C7F"/>
<path d="M1263.75 816.876V266.252H1437.29V816.876H1263.75ZM1437.29 514.373L1364.7 457.724C1379.07 393.522 1403.27 343.672 1437.29 308.172C1471.32 272.672 1518.58 254.922 1579.08 254.922C1605.54 254.922 1628.61 259.076 1648.27 267.385C1668.68 274.938 1686.45 287.023 1701.58 303.64L1598.36 433.932C1590.8 425.623 1581.34 419.203 1570 414.671C1558.66 410.139 1545.81 407.873 1531.44 407.873C1502.7 407.873 1479.64 416.937 1462.25 435.065C1445.61 452.437 1437.29 478.873 1437.29 514.373Z" fill="#038C7F"/>
<path d="M1747.81 816.876V266.252H1921.35V816.876H1747.81ZM1835.14 190.343C1807.92 190.343 1785.24 181.279 1767.09 163.151C1749.7 144.269 1741 121.609 1741 95.1731C1741 67.9818 1749.7 45.3224 1767.09 27.1948C1785.24 9.0673 1807.92 0.00353102 1835.14 0.00353102C1862.37 0.00353102 1884.67 9.0673 1902.06 27.1948C1919.46 45.3224 1928.15 67.9818 1928.15 95.1731C1928.15 121.609 1919.46 144.269 1902.06 163.151C1884.67 181.279 1862.37 190.343 1835.14 190.343Z" fill="#038C7F"/>
<path d="M2990.35 829.339C2930.61 829.339 2877.3 817.254 2830.42 793.084C2784.29 768.158 2747.99 733.791 2721.53 689.983C2695.06 646.175 2681.83 596.702 2681.83 541.564C2681.83 486.426 2694.68 437.331 2720.39 394.278C2746.86 350.469 2782.4 316.103 2827.01 291.177C2871.63 266.252 2921.91 253.789 2977.87 253.789C3032.31 253.789 3080.33 265.497 3121.92 288.911C3163.51 312.326 3196.02 344.805 3219.46 386.347C3243.66 427.889 3255.76 475.474 3255.76 529.101C3255.76 538.92 3255 549.495 3253.49 560.824C3252.74 571.399 3250.85 583.861 3247.82 598.212L2772.57 599.345V480.383L3174.09 479.25L3099.23 529.101C3098.48 497.378 3093.56 471.32 3084.49 450.926C3075.41 429.777 3061.8 413.916 3043.66 403.341C3026.26 392.012 3004.71 386.347 2979 386.347C2951.78 386.347 2927.96 392.767 2907.54 405.607C2887.88 417.692 2872.38 435.065 2861.04 457.724C2850.45 480.383 2845.16 507.952 2845.16 540.431C2845.16 572.909 2850.83 600.856 2862.17 624.271C2874.27 646.93 2890.91 664.68 2912.08 677.52C2934.01 689.605 2959.72 695.648 2989.21 695.648C3016.43 695.648 3041.01 691.116 3062.94 682.052C3084.87 672.233 3104.15 657.882 3120.78 638.999L3216.06 734.169C3188.84 765.892 3155.95 789.685 3117.38 805.546C3078.82 821.408 3036.47 829.339 2990.35 829.339Z" fill="#038C7F"/>
<path d="M3448.42 829.339C3418.93 829.339 3394.35 819.142 3374.69 798.748C3355.03 778.355 3345.2 753.807 3345.2 725.105C3345.2 694.893 3355.03 669.967 3374.69 650.329C3394.35 629.936 3418.93 619.739 3448.42 619.739C3478.66 619.739 3503.24 629.936 3522.14 650.329C3541.8 669.967 3551.63 694.893 3551.63 725.105C3551.63 753.807 3541.8 778.355 3522.14 798.748C3503.24 819.142 3478.66 829.339 3448.42 829.339Z" fill="#038C7F"/>
<path d="M3635.35 816.876L3952.94 16.9981H4114L4428.19 816.876H4239.9L3999.44 152.955H4064.09L3820.23 816.876H3635.35ZM3815.69 671.856V526.835H4252.38V671.856H3815.69Z" fill="#038C7F"/>
<path d="M4512.92 816.876V16.9981H4691V816.876H4512.92Z" fill="#038C7F"/>
<path d="M2042.69 569.53H2208.04C2210.26 586.398 2215.11 601.765 2222.59 615.631C2233.21 635.333 2247.64 650.867 2265.85 662.233C2284.07 672.841 2305.71 678.146 2330.76 678.146C2354.29 678.146 2375.55 672.462 2394.53 661.096C2413.51 649.73 2428.31 634.196 2438.94 614.495C2446.33 600.79 2451.15 585.802 2453.4 569.53H2630.76C2628.1 615.952 2616.92 657.841 2597.22 695.195C2573.69 738.387 2541.8 772.485 2501.57 797.491C2460.58 822.497 2413.89 835 2361.51 835C2323.55 835 2289.01 827.423 2257.88 812.268C2241.5 803.893 2226.7 794.154 2213.47 783.052V823.634H2042.67L2042.69 569.53Z" fill="#038C7F"/>
<path d="M2216.72 307.233L2216.19 0H2042.7V529.476H2207.56C2209.5 511.138 2214.51 494.771 2222.59 480.373C2232.45 460.671 2246.88 445.137 2265.85 433.771C2284.07 422.405 2305.33 416.722 2329.62 416.722C2353.92 416.722 2375.55 422.405 2394.53 433.771C2412.75 445.137 2427.55 460.671 2438.94 480.373C2446.96 495.232 2451.95 511.6 2453.92 529.476H2630.97C2628.75 481.401 2617.5 438.133 2597.22 399.672C2573.69 356.481 2541.8 322.382 2501.57 297.376C2460.58 272.37 2413.89 259.867 2361.51 259.867C2323.55 259.867 2289.39 267.066 2259.02 281.463C2243.51 288.641 2229.41 297.23 2216.72 307.233Z" fill="#038C7F"/>
</g>
<defs>
<clipPath id="clip0_371_339">
<rect width="4691" height="835" fill="white"/>
</clipPath>
</defs>
</svg>
