<svg width="80" height="20" viewBox="0 0 80 20" fill="none" xmlns="http://www.w3.org/2000/svg">
<path d="M79.9986 0H77.0464H40.3112L40.309 5.42857H40.2957V10.8048C40.0814 10.6316 39.8433 10.4828 39.5814 10.3583C39.0666 10.1075 38.4875 9.98214 37.844 9.98214C36.9559 9.98214 36.1645 10.1999 35.4695 10.6355C34.7874 11.071 34.2468 11.665 33.8479 12.4173C33.5078 13.08 33.3175 13.8246 33.2769 14.6512H36.2803C36.3157 14.3503 36.3993 14.0743 36.5312 13.823C36.7243 13.4798 36.9753 13.2092 37.2841 13.0113C37.6059 12.8133 37.9727 12.7143 38.3845 12.7143C38.7963 12.7143 39.1567 12.8133 39.4656 13.0113C39.7873 13.2092 40.0319 13.4798 40.1992 13.823C40.3322 14.0667 40.4161 14.3427 40.4509 14.6512H43.2493L43.2515 2.91971H77.0464L77.0583 5.42857L77.0493 10.7801C76.8342 10.6058 76.5951 10.4562 76.3321 10.3312C75.8173 10.0804 75.2381 9.95503 74.5946 9.95503C73.7066 9.95503 72.9151 10.1728 72.2201 10.6084C71.538 11.0439 70.9975 11.6379 70.5985 12.3902C70.2547 13.0601 70.064 13.8138 70.0263 14.6512H73.028C73.0614 14.3398 73.146 14.0547 73.2819 13.7959C73.475 13.4527 73.7259 13.1821 74.0348 12.9841C74.3565 12.7862 74.7233 12.6872 75.1352 12.6872C75.547 12.6872 75.9074 12.7862 76.2163 12.9841C76.538 13.1821 76.7825 13.4527 76.9498 13.7959C77.0868 14.0467 77.1717 14.3318 77.2045 14.6512H79.9995L79.9986 0Z" fill="#038C7F"/>
<path d="M79.9996 15.3488H77.1964C77.1588 15.6427 77.0766 15.9103 76.9498 16.1518C76.7696 16.495 76.5251 16.7656 76.2163 16.9636C75.9074 17.1484 75.5406 17.2407 75.1159 17.2407C74.7169 17.2407 74.3565 17.1418 74.0348 16.9438C73.713 16.7458 73.4621 16.4752 73.2819 16.132C73.1566 15.8933 73.0748 15.6323 73.0367 15.3488H70.03C70.0751 16.1574 70.2646 16.8871 70.5985 17.5377C70.9975 18.29 71.538 18.884 72.2201 19.3195C72.9151 19.7551 73.7066 19.9729 74.5946 19.9729C75.2381 19.9729 75.8237 19.8409 76.3514 19.5769C76.6291 19.4311 76.88 19.2614 77.1043 19.068V19.7749H80L79.9996 15.3488Z" fill="#038C7F"/>
<path d="M43.2493 15.3488H40.4491C40.4132 15.6533 40.3299 15.93 40.1992 16.179C40.019 16.5221 39.7745 16.7927 39.4656 16.9907C39.1567 17.1755 38.7899 17.2679 38.3652 17.2679C37.9662 17.2679 37.6059 17.1689 37.2841 16.9709C36.9624 16.7729 36.7114 16.5023 36.5312 16.1592C36.4019 15.9128 36.319 15.6427 36.2825 15.3488H33.2778C33.3202 16.1683 33.5102 16.9069 33.8479 17.5648C34.2468 18.3172 34.7874 18.9111 35.4695 19.3467C36.1645 19.7822 36.9559 20 37.844 20C38.4875 20 39.073 19.868 39.6007 19.604C39.8784 19.4582 40.1294 19.2885 40.3536 19.0951V19.802H43.2493V15.3488Z" fill="#038C7F"/>
<path d="M44.9883 19.7821V5.40146H47.1407L51.9345 12.612L56.7111 5.40146H58.8827V19.7821H55.8655V11.8343L52.4832 15.9133H51.3878L47.9862 11.8112V19.7821H44.9883Z" fill="#038C7F"/>
<path d="M0 19.7821V5.79762H3.01718V11.2448H8.39814V5.79762H11.4345V19.7821H8.39814V13.9387H3.01718V19.7821H0Z" fill="#038C7F"/>
<path fill-rule="evenodd" clip-rule="evenodd" d="M17.4023 20C16.3902 20 15.4869 19.7887 14.6926 19.3661C13.9111 18.9304 13.2961 18.3295 12.8477 17.5636C12.3993 16.7977 12.1751 15.9327 12.1751 14.9688C12.1751 14.0048 12.3929 13.1464 12.8285 12.3937C13.2769 11.6278 13.8791 11.0269 14.635 10.5912C15.3909 10.1554 16.2428 9.93751 17.1909 9.93751C18.1134 9.93751 18.9269 10.1422 19.6316 10.5516C20.3362 10.9609 20.8871 11.5288 21.2843 12.255C21.6943 12.9813 21.8993 13.8133 21.8993 14.7509C21.8993 14.9225 21.8864 15.1074 21.8608 15.3055C21.848 15.4904 21.816 15.7083 21.7647 15.9592L15.0696 15.9756C15.1125 16.1309 15.1662 16.2773 15.2307 16.4147C15.4357 16.8109 15.7176 17.1212 16.0763 17.3457C16.4478 17.557 16.8834 17.6626 17.3831 17.6626C17.8443 17.6626 18.2607 17.5834 18.6322 17.425C19.0038 17.2533 19.3305 17.0024 19.6123 16.6722L21.2266 18.3361C21.2266 18.3361 20.2081 19.3067 19.5547 19.584C18.9013 19.8613 18.1838 20 17.4023 20ZM15.2115 13.503C15.156 13.6255 15.1091 13.7562 15.0708 13.8952L19.1533 13.8833C19.1136 13.6996 19.0617 13.5332 18.9974 13.3841C18.8436 13.0144 18.613 12.737 18.3055 12.5522C18.0109 12.3541 17.6457 12.255 17.2101 12.255C16.7489 12.255 16.3453 12.3673 15.9994 12.5918C15.6663 12.8031 15.4037 13.1068 15.2115 13.503Z" fill="#038C7F"/>
<path fill-rule="evenodd" clip-rule="evenodd" d="M24.8114 19.3265C25.4904 19.7623 26.2592 19.7821 27.1175 19.7821H32.5754V10.1554H29.6927V10.9548C29.4393 10.7052 29.1447 10.4982 28.8087 10.3337C28.309 10.0828 27.7453 9.95731 27.1175 9.95731C26.2592 9.95731 25.4904 10.1752 24.8114 10.611C24.1452 11.0468 23.6135 11.641 23.2163 12.3937C22.832 13.1464 22.6398 14.0048 22.6398 14.9688C22.6398 15.9327 22.832 16.7911 23.2163 17.5438C23.6135 18.2965 24.1452 18.8907 24.8114 19.3265ZM29.2315 16.6128C28.8471 17.0354 28.3411 17.2467 27.7133 17.2467C27.3161 17.2467 26.9574 17.1476 26.6371 16.9496C26.3168 16.7515 26.067 16.4808 25.8876 16.1374C25.7082 15.7941 25.6186 15.4045 25.6186 14.9688C25.6186 14.5198 25.7082 14.1236 25.8876 13.7803C26.0798 13.4369 26.3296 13.1728 26.6371 12.9879C26.9574 12.7899 27.3225 12.6908 27.7325 12.6908C28.1425 12.6908 28.5012 12.7899 28.8087 12.9879C29.129 13.1728 29.3724 13.4369 29.539 13.7803C29.7183 14.1236 29.808 14.5198 29.808 14.9688C29.808 15.629 29.6159 16.177 29.2315 16.6128Z" fill="#038C7F"/>
<path fill-rule="evenodd" clip-rule="evenodd" d="M62.1408 19.3661C62.9351 19.7887 63.8383 20 64.8505 20C65.632 20 66.3494 19.8613 67.0028 19.584C67.6562 19.3067 68.6748 18.3361 68.6748 18.3361L67.0605 16.6722C66.7786 17.0024 66.4519 17.2533 66.0804 17.425C65.7089 17.5834 65.2925 17.6626 64.8312 17.6626C64.3316 17.6626 63.896 17.557 63.5244 17.3457C63.1657 17.1212 62.8838 16.8109 62.6789 16.4147C62.6143 16.2773 62.5606 16.1309 62.5178 15.9756L69.2129 15.9592C69.2641 15.7083 69.2962 15.4904 69.309 15.3055C69.3346 15.1074 69.3474 14.9225 69.3474 14.7509C69.3474 13.8133 69.1424 12.9813 68.7324 12.255C68.3353 11.5288 67.7844 10.9609 67.0797 10.5516C66.3751 10.1422 65.5615 9.93751 64.6391 9.93751C63.691 9.93751 62.839 10.1554 62.0831 10.5912C61.3272 11.0269 60.725 11.6278 60.2766 12.3937C59.841 13.1464 59.6232 14.0048 59.6232 14.9688C59.6232 15.9327 59.8475 16.7977 60.2959 17.5636C60.7443 18.3295 61.3592 18.9304 62.1408 19.3661ZM62.519 13.8952C62.5573 13.7562 62.6042 13.6255 62.6596 13.503C62.8518 13.1068 63.1145 12.8031 63.4476 12.5918C63.7935 12.3673 64.1971 12.255 64.6583 12.255C65.0939 12.255 65.459 12.3541 65.7537 12.5522C66.0612 12.737 66.2918 13.0144 66.4455 13.3841C66.5098 13.5332 66.5618 13.6996 66.6014 13.8833L62.519 13.8952Z" fill="#038C7F"/>
</svg>
